<svg width="1569" height="607" viewBox="0 0 1569 607" fill="none" xmlns="http://www.w3.org/2000/svg">
<path d="M117.475 398H51.4746L183.475 32.5H248.975L380.975 398H313.475L283.975 313.5H147.475L117.475 398ZM207.975 141.5L165.975 259.5H265.475L223.475 141.5C222.141 136.5 220.641 131.5 218.975 126.5C217.308 121.5 216.308 117.167 215.975 113.5C215.308 116.833 214.141 121.167 212.475 126.5C211.141 131.5 209.641 136.5 207.975 141.5ZM813.729 404C778.062 404 747.062 396.333 720.729 381C694.729 365.333 674.395 343.5 659.729 315.5C645.395 287.167 638.229 253.833 638.229 215.5C638.229 177.5 645.562 144.333 660.229 116C675.229 87.6666 696.229 65.6666 723.229 50C750.229 34.3333 781.395 26.5 816.729 26.5C845.729 26.5 871.729 31.8333 894.729 42.5C917.729 53.1667 936.729 68.1667 951.729 87.5C966.729 106.5 976.229 129.167 980.229 155.5H912.729C906.395 134.167 894.562 117.667 877.229 106C860.229 94 839.395 88 814.729 88C792.729 88 773.395 93.1667 756.729 103.5C740.395 113.833 727.729 128.5 718.729 147.5C709.729 166.5 705.229 189.167 705.229 215.5C705.229 240.833 709.729 263.167 718.729 282.5C727.729 301.5 740.395 316.333 756.729 327C773.395 337.333 792.729 342.5 814.729 342.5C839.729 342.5 861.062 336.5 878.729 324.5C896.729 312.5 908.729 296.333 914.729 276H981.229C976.562 301.333 966.395 323.667 950.729 343C935.395 362.333 915.895 377.333 892.229 388C868.895 398.667 842.729 404 813.729 404ZM1407.6 63V398H1343.6V63H1407.6ZM1236.6 91.5V32.5H1514.6V91.5H1236.6Z" fill="#050505"/>
<path d="M25.1421 479.1C25.1421 473.9 26.4421 469.393 29.0421 465.58C31.6421 461.68 35.2821 458.647 39.9621 456.48C44.6421 454.313 50.1021 453.23 56.3421 453.23C61.9754 453.23 66.8721 454.227 71.0321 456.22C75.2787 458.213 78.6587 461.073 81.1721 464.8C83.6854 468.527 85.1587 472.99 85.5921 478.19H76.1021C75.5821 472.99 73.5887 468.96 70.1221 466.1C66.6554 463.153 62.0187 461.68 56.2121 461.68C49.7121 461.68 44.4687 463.24 40.4821 466.36C36.4954 469.48 34.5021 473.683 34.5021 478.97C34.5021 483.043 35.7154 486.423 38.1421 489.11C40.5687 491.71 44.2087 493.617 49.0621 494.83L65.0521 498.73C72.3321 500.463 77.8354 503.41 81.5621 507.57C85.2887 511.643 87.1521 516.843 87.1521 523.17C87.1521 528.457 85.8521 533.093 83.2521 537.08C80.6521 541.067 76.9687 544.143 72.2021 546.31C67.4354 548.477 61.8454 549.56 55.4321 549.56C49.4521 549.56 44.1221 548.563 39.4421 546.57C34.8487 544.577 31.2087 541.717 28.5221 537.99C25.9221 534.263 24.4054 529.887 23.9721 524.86H33.5921C33.8521 529.8 35.9754 533.743 39.9621 536.69C43.9487 539.55 49.1054 540.98 55.4321 540.98C62.2787 540.98 67.6954 539.42 71.6821 536.3C75.7554 533.18 77.7921 528.977 77.7921 523.69C77.7921 519.443 76.5787 516.02 74.1521 513.42C71.8121 510.733 68.1287 508.783 63.1021 507.57L47.3721 503.67C40.0921 501.937 34.5454 499.033 30.7321 494.96C27.0054 490.8 25.1421 485.513 25.1421 479.1ZM309.124 501.46C309.124 510.907 307.217 519.227 303.404 526.42C299.677 533.613 294.477 539.29 287.804 543.45C281.131 547.523 273.461 549.56 264.794 549.56C256.127 549.56 248.414 547.523 241.654 543.45C234.981 539.29 229.781 533.613 226.054 526.42C222.327 519.227 220.464 510.907 220.464 501.46C220.464 492.013 222.327 483.693 226.054 476.5C229.867 469.22 235.111 463.543 241.784 459.47C248.457 455.31 256.127 453.23 264.794 453.23C273.547 453.23 281.217 455.31 287.804 459.47C294.477 463.543 299.677 469.22 303.404 476.5C307.217 483.693 309.124 492.013 309.124 501.46ZM299.504 501.46C299.504 493.66 298.031 486.857 295.084 481.05C292.137 475.157 288.064 470.563 282.864 467.27C277.751 463.977 271.727 462.33 264.794 462.33C257.947 462.33 251.924 463.977 246.724 467.27C241.524 470.563 237.451 475.157 234.504 481.05C231.644 486.857 230.214 493.66 230.214 501.46C230.214 509.173 231.644 515.977 234.504 521.87C237.451 527.763 241.524 532.357 246.724 535.65C251.924 538.943 257.947 540.59 264.794 540.59C271.727 540.59 277.751 538.943 282.864 535.65C288.064 532.357 292.137 527.763 295.084 521.87C298.031 515.977 299.504 509.173 299.504 501.46ZM457.656 454.92V548H448.296V454.92H457.656ZM503.156 463.5H448.686V454.92H503.156V463.5ZM495.746 507.05H448.686V498.6H495.746V507.05ZM669.292 459.08V548H659.932V459.08H669.292ZM631.332 463.5V454.92H698.022V463.5H631.332ZM852.706 548L825.016 454.92H834.766L853.616 518.88C854.309 521.133 854.916 523.473 855.436 525.9C856.042 528.327 856.649 531.1 857.256 534.22C858.036 530.84 858.772 528.023 859.466 525.77C860.159 523.43 860.852 521.133 861.546 518.88L881.826 454.92H891.576L911.856 518.88C912.549 521.22 913.242 523.647 913.936 526.16C914.629 528.587 915.322 531.273 916.016 534.22C916.709 530.667 917.359 527.677 917.966 525.25C918.572 522.823 919.136 520.743 919.656 519.01L938.896 454.92H948.386L920.436 548H911.596L886.636 468.96L861.676 548H852.706ZM1074.77 548H1065.28L1099.47 454.92H1111.04L1145.62 548H1135.87L1126.77 523.3H1083.87L1074.77 548ZM1104.02 468.05L1086.73 515.11H1123.78L1106.36 468.05C1106.19 467.357 1105.97 466.663 1105.71 465.97C1105.45 465.277 1105.28 464.713 1105.19 464.28C1105.1 464.713 1104.93 465.32 1104.67 466.1C1104.5 466.793 1104.28 467.443 1104.02 468.05ZM1290.12 548H1280.76V454.92H1315.47C1324.83 454.92 1332.19 457.347 1337.57 462.2C1343.03 466.967 1345.76 473.51 1345.76 481.83C1345.76 488.503 1344.07 494.093 1340.69 498.6C1337.39 503.107 1332.76 506.183 1326.78 507.83L1346.67 548H1336.27L1317.29 509.39H1290.12V548ZM1290.12 463.37V500.94H1315.73C1322.14 500.94 1327.12 499.25 1330.68 495.87C1334.32 492.49 1336.14 487.897 1336.14 482.09C1336.14 476.023 1334.27 471.387 1330.55 468.18C1326.82 464.973 1321.79 463.37 1315.47 463.37H1290.12ZM1541.88 548H1486.11V454.92H1541.75V463.5H1489.62L1495.47 458.43V497.04H1537.46V505.49H1495.47V544.49L1489.62 539.42H1541.88V548Z" fill="#636363"/>
</svg>
